<?xml version="1.0" encoding="UTF-8"?><svg id="katman_1" xmlns="http://www.w3.org/2000/svg" viewBox="0 0 666 666"><defs><style>.cls-1{fill:#dca958;stroke-width:0px;}</style></defs><path class="cls-1" d="M663.35,654.14h-76.87c-15.07,0-28.84-8.51-35.58-21.99h0c-50.41-83.18-114.73-107.57-155.97-107.45v-84.3c35.99-.28,65.21,25.04,89.91,59.59l-151.89-303.87-152.11,304.33c24.76-34.79,54.07-60.29,90.2-60.01v84.3c-41.38-.12-106,24.41-156.47,108.27h0c-6.47,12.95-19.7,21.13-34.18,21.13H2.55c-1.43,0-2.59-1.15-2.6-2.58,0-.42.1-.83.29-1.2L280.13,90.43l35.36-70.74c7.19-14.39,27.74-14.39,34.94,0l35.36,70.74,279.89,559.94c.65,1.27.16,2.83-1.11,3.49-.37.19-.78.29-1.2.29ZM361.03,416.82c-4.82,3.21-10.13,5.7-14.6,9.39-7.45,6.16-11.63,15.16-13.56,24.71-3.94-16.93-17.84-31.72-22.07-50.08-1.89-8.18-2.61-16.77-6.3-24.31-4.91-10.02-14.4-16.92-23.92-22.73,7.51,10.32,7.43,24.26,5.78,36.93s-4.51,25.67-1.37,38.05c4.07,16.08,17.34,27.9,29.92,38.68.97.83,1.98,1.67,3.01,2.5v78.46c8.95,7.71,17.61,15.76,26.78,23.21v-97.25c28.65-21.02,37.44-43.24,40.32-52.1,4.22-13.02-1.29-23.31,9.06-44.04-18.13,9.06-19.53,29.56-33.05,38.55Z"/></svg>