<?xml version="1.0" encoding="UTF-8"?><svg id="katman_1" xmlns="http://www.w3.org/2000/svg" viewBox="0 0 666 666"><defs><style>.cls-1{fill:#dca958;fill-rule:evenodd;stroke-width:0px;}</style></defs><path class="cls-1" d="M76.28-.37s150.67,90.38,199.85,193.29c17.88-5.07,36.66-7.83,55.82-7.83s38.65,2.87,56.82,8.12C437.81,90.18,588.76-.37,588.76-.37c5.34,58.73.35,199.7-59.22,317.61-3.45-6.11-6.77-11.82-10.09-17.29,19.81-42.27,25.59-69.51,26.07-121.49-11.42,47.17-18.09,73.73-38.97,101.46-12.84-18.72-27.78-37-50.86-62.71l.02-.68c7.67-48.09,19.44-77.06,44-129.67-48.01,58.17-70.95,105.37-70.27,147.44l-.39-.39c.31,23.83,8.18,46.01,23.37,67.59l2.9-22.62,13.1,8.28c-1.63-5.1-3.26-9.36-4.79-13.35h0c-1.65-4.32-3.19-8.34-4.49-12.81.17.15.34.29.51.44-.04-.15-.09-.3-.13-.44,18.83,16.16,35.76,34.62,64.21,67.32l-.37.69-.37-.38c1.36,7.59,2.06,15.3,2.06,23.1,0,12.58-1.84,28.33-5.28,46.11,5.39,3.23,10.71,7.65,14.17,14.59-7.29.13-12.32.75-17.88,2.74-.2.84-.4,1.69-.6,2.53,19.75,19.71,28.71,33.68,41.6,59.84-20.27-17.42-33.09-28.19-47.54-37.1-.65,2.3-1.32,4.62-2.01,6.95,11.11,20.3,13.26,35.26,8.17,61.06-9.55-8.54-16.42-14.54-22.53-17.87-4.49,12.15-9.38,24.38-14.64,36.47-3.53,3.53-6.36,7.35-9.17,11.13-7.5,10.12-14.77,19.93-34.53,22.82,1.06,27.97-4.92,40.22-11.29,53.25-3.19,6.53-6.47,13.25-9.02,22.25-5.01,6.05-10.13,11.69-15.34,16.84-32.21,16.65-33.89,15.83-63.97,1.1l-3.76-1.84c-33.73,16.48-36.16,17.36-64.77,2.64-6.84-6.57-13.52-13.99-20.02-22.09-2.37-7.36-5.22-13.2-8-18.89-6.37-13.03-12.35-25.29-11.29-53.25-19.77-2.89-27.03-12.7-34.53-22.82-1.88-2.54-3.77-5.09-5.88-7.56-5.79-13.1-11.15-26.39-16.03-39.58-6.15,3.31-13.06,9.34-22.7,17.96-5.1-25.88-2.92-40.86,8.28-61.25-.68-2.29-1.34-4.57-1.98-6.83-14.51,8.93-27.35,19.71-47.68,37.19,12.91-26.2,21.88-40.18,41.7-59.94-.19-.79-.38-1.59-.56-2.37-5.62-2.02-10.67-2.66-18.03-2.79,3.48-6.98,8.84-11.41,14.27-14.64-3.5-17.98-5.38-33.91-5.38-46.6,0-7.74.7-15.39,2.03-22.92,28.71-33.01,45.72-51.57,64.64-67.81-1.3,4.47-2.84,8.49-4.5,12.81h0c-1.53,4-3.16,8.25-4.79,13.36l13.11-8.28,2.9,22.62c41.93-59.59,28.15-123.71-46.9-214.64,24.56,52.61,36.33,81.57,44,129.67l.02.68c-23.08,25.72-38.01,44-50.85,62.71-20.88-27.73-27.55-54.29-38.97-101.47.48,51.97,6.26,79.22,26.07,121.49-3.32,5.47-6.64,11.18-10.09,17.29C75.93,199.32,70.94,58.36,76.28-.37ZM278.97,438.89l-17.1-33.11-48-8.83c2.09,35.05,24.83,48.56,65.11,41.93ZM408.64,405.79l-17.11,33.11c40.28,6.62,63.02-6.88,65.11-41.93l-48,8.83ZM301.22,578.33c-7.46,5.28-12.07,12.53-12.07,20.53,0,16.15,18.77,29.24,41.93,29.24s41.93-13.09,41.93-29.24c0-8.42-5.1-16-13.26-21.34-8.27,3.33-18.83,5.33-30.33,5.33-10.54,0-20.29-1.68-28.21-4.53Z"/></svg>