<?xml version="1.0" encoding="UTF-8"?><svg id="katman_1" xmlns="http://www.w3.org/2000/svg" viewBox="0 0 666 666"><defs><style>.cls-1{fill:none;stroke:#dca958;stroke-width:60px;}</style></defs><g id="Rebus"><path class="cls-1" d="M564.79,247.77c-26.52-26.52-58.02-45.04-91.48-55.58,7.48,23.78,10.92,48.54,10.33,73.22,0,.01,0,.02,0,.04-.09,3.57-.26,7.13-.51,10.69,0,.07-.01.14-.02.21-.26,3.53-.59,7.06-1.01,10.58,0,.07-.02.15-.03.22-.21,1.74-.44,3.48-.69,5.22,0,0,0,.01,0,.02-.26,1.78-.54,3.56-.84,5.34,0,.01,0,.02,0,.03-.28,1.68-.59,3.36-.91,5.03-.03.16-.06.32-.09.47-.66,3.37-1.39,6.73-2.2,10.08-.06.23-.11.46-.17.68-.81,3.3-1.7,6.59-2.66,9.86-.07.25-.15.5-.23.75-.44,1.47-.89,2.93-1.36,4.39-.06.18-.11.35-.17.53-.52,1.61-1.06,3.22-1.62,4.82-.08.22-.16.44-.23.66-.49,1.38-.99,2.76-1.5,4.13-.11.3-.23.61-.34.91-.59,1.57-1.2,3.13-1.83,4.68-.04.1-.09.21-.13.31-.58,1.42-1.18,2.84-1.79,4.26-.16.36-.31.73-.47,1.09-.63,1.44-1.28,2.88-1.94,4.32-.03.07-.07.14-.1.22-.69,1.49-1.41,2.98-2.14,4.46-.19.38-.38.76-.56,1.13-.61,1.22-1.22,2.43-1.85,3.63-.15.29-.3.59-.46.88-.76,1.44-1.53,2.87-2.33,4.29-.19.35-.39.7-.59,1.05-.64,1.14-1.29,2.27-1.95,3.4-.23.38-.45.77-.68,1.15-.83,1.4-1.67,2.79-2.53,4.17-.16.26-.33.51-.49.77-.73,1.16-1.47,2.31-2.22,3.46-.27.41-.54.83-.82,1.24-.83,1.25-1.68,2.5-2.54,3.74-.09.13-.18.27-.27.4-.93,1.34-1.89,2.67-2.86,3.99-.3.41-.6.82-.9,1.22-.78,1.05-1.57,2.1-2.37,3.15-.24.31-.48.63-.72.94-1,1.29-2.02,2.56-3.05,3.83-.3.37-.61.74-.91,1.11-.81.98-1.63,1.96-2.46,2.94-.32.37-.64.75-.96,1.12-1.07,1.25-2.16,2.48-3.27,3.71-.26.28-.52.56-.77.85-.91,1-1.82,1.99-2.75,2.97-.36.39-.73.77-1.1,1.16-1.1,1.15-2.21,2.29-3.34,3.42-.08.08-.15.15-.22.23s-.16.15-.24.23c-1.13,1.12-2.26,2.23-3.4,3.32-.39.37-.78.74-1.17,1.11-.97.92-1.96,1.83-2.94,2.73-.29.27-.58.53-.87.8-1.22,1.1-2.45,2.18-3.69,3.25-.39.33-.78.66-1.17,1-.95.81-1.91,1.61-2.87,2.4-.39.32-.78.64-1.16.96-1.25,1.02-2.52,2.02-3.79,3.01-.35.27-.7.53-1.05.8-1,.77-2,1.53-3.01,2.27-.44.33-.88.65-1.32.97-1.26.92-2.52,1.83-3.79,2.72-.25.17-.5.34-.74.51-1.16.8-2.32,1.59-3.48,2.36-.46.31-.92.61-1.38.91-1.07.7-2.14,1.39-3.22,2.07-.33.21-.66.42-.99.63-1.34.84-2.69,1.65-4.04,2.46-.45.27-.9.53-1.35.79-1.03.61-2.07,1.2-3.12,1.79-.43.24-.85.48-1.28.72-1.37.76-2.75,1.51-4.13,2.24-.39.21-.79.41-1.19.62-1.08.56-2.17,1.12-3.26,1.66-.47.23-.93.47-1.4.69-1.41.69-2.83,1.38-4.26,2.04-.24.11-.48.22-.73.33-1.25.57-2.49,1.13-3.75,1.68-.47.21-.94.41-1.41.61-1.23.53-2.45,1.04-3.69,1.55-.28.11-.55.23-.83.34-1.47.59-2.94,1.17-4.42,1.73-.44.17-.88.33-1.31.49-1.18.44-2.37.87-3.55,1.29-.38.13-.76.27-1.14.4-1.5.52-3,1.03-4.51,1.52-.36.12-.72.23-1.07.34-1.23.39-2.47.78-3.71,1.15-.42.12-.83.25-1.25.37-1.54.45-3.09.89-4.64,1.31-.16.04-.32.08-.49.13-1.42.38-2.84.74-4.26,1.09-.41.1-.82.2-1.23.3-1.47.35-2.94.7-4.41,1.02-.11.02-.22.05-.34.08-1.6.35-3.2.68-4.8.99-.37.07-.73.14-1.1.21-1.37.26-2.75.51-4.13.75-.26.05-.53.09-.79.14-1.62.27-3.25.53-4.87.76-.27.04-.53.07-.8.11-1.41.2-2.82.39-4.24.56-.32.04-.63.08-.95.12-1.66.2-3.32.38-4.98.54-.06,0-.12,0-.17.02-1.59.15-3.17.28-4.76.4-.32.02-.64.05-.96.07-3.32.23-6.65.39-9.98.48-.28,0-.57.01-.85.02-1.53.03-3.07.05-4.6.05-.14,0-.29,0-.43,0-1.7,0-3.4-.02-5.1-.06-.19,0-.38-.01-.58-.02-1.53-.04-3.05-.09-4.58-.16-.23-.01-.47-.02-.7-.03-3.38-.16-6.75-.41-10.12-.72-.26-.02-.52-.05-.78-.07-3.36-.33-6.72-.73-10.07-1.21-.24-.03-.48-.07-.71-.1-1.6-.23-3.2-.48-4.8-.75-.07-.01-.13-.02-.2-.03-1.71-.29-3.41-.6-5.12-.93-.16-.03-.33-.06-.49-.1-1.55-.3-3.09-.62-4.64-.96-.18-.04-.37-.08-.55-.12-3.35-.74-6.69-1.55-10-2.44-.22-.06-.44-.12-.66-.18-2.88-.78-5.76-1.62-8.61-2.51,10.54,33.47,29.05,64.96,55.58,91.49,88.01,88.01,230.69,88.01,318.69,0,88.01-88.01,88.01-230.69,0-318.69Z"/><path class="cls-1" d="M187.85,465.87c-.92-3.43-1.77-6.89-2.53-10.35,0-.04-.02-.09-.03-.13-.38-1.73-.74-3.47-1.07-5.21,0-.01,0-.03,0-.04-.68-3.5-1.27-7-1.78-10.52-.01-.09-.03-.18-.04-.28-.5-3.49-.92-6.98-1.26-10.49,0-.1-.02-.21-.03-.31-.33-3.52-.59-7.04-.76-10.56,0-.06,0-.11,0-.17-.08-1.76-.15-3.53-.19-5.29,0,0,0,0,0,0-.08-3.55-.08-7.09,0-10.64,0-.1,0-.2,0-.3.09-3.5.25-6.99.5-10.49,0-.13.02-.26.03-.39.25-3.49.59-6.97,1-10.45.01-.11.03-.22.04-.32.21-1.7.43-3.4.67-5.1,0-.03,0-.07.01-.1.26-1.77.53-3.54.83-5.31,0-.02,0-.04,0-.05.28-1.68.59-3.36.91-5.03.03-.15.06-.3.09-.45.66-3.39,1.4-6.77,2.21-10.13.05-.2.1-.4.14-.59.82-3.34,1.72-6.67,2.69-9.98.06-.19.11-.38.17-.57.46-1.56.94-3.11,1.44-4.66.03-.1.06-.2.09-.29.54-1.66,1.1-3.32,1.67-4.98.04-.12.09-.25.13-.37.53-1.5,1.07-3,1.63-4.5.08-.21.16-.43.24-.64,1.21-3.2,2.5-6.38,3.86-9.53.11-.25.22-.51.33-.76,1.37-3.13,2.81-6.24,4.33-9.32.12-.24.24-.49.36-.73.7-1.41,1.42-2.82,2.15-4.22.07-.13.14-.26.2-.39.81-1.54,1.64-3.07,2.49-4.59.1-.18.21-.37.31-.55.76-1.35,1.53-2.69,2.31-4.03.13-.23.26-.45.4-.68.89-1.51,1.8-3.01,2.73-4.5.02-.03.04-.07.06-.1.89-1.42,1.8-2.83,2.72-4.24.17-.25.33-.51.5-.76,1.92-2.9,3.92-5.76,5.99-8.59.17-.23.34-.47.52-.7.97-1.32,1.96-2.63,2.97-3.93.07-.09.14-.18.21-.28,1.1-1.41,2.21-2.82,3.35-4.21.14-.17.28-.34.42-.51,1.02-1.24,2.05-2.48,3.1-3.71.15-.18.3-.36.46-.54,1.19-1.38,2.39-2.74,3.61-4.1.03-.04.07-.07.1-.11,1.16-1.29,2.35-2.56,3.55-3.83.19-.2.38-.4.57-.6,1.25-1.31,2.51-2.61,3.8-3.9s2.59-2.55,3.9-3.8c.19-.18.39-.37.58-.55,1.28-1.21,2.57-2.41,3.87-3.58.02-.02.05-.04.07-.06,1.37-1.23,2.75-2.45,4.13-3.64.16-.13.31-.27.47-.4,1.26-1.08,2.53-2.14,3.81-3.19.14-.12.28-.23.42-.35,1.42-1.15,2.84-2.29,4.28-3.4.05-.04.09-.07.14-.11,1.36-1.05,2.73-2.08,4.1-3.09.19-.14.38-.28.58-.43,2.87-2.1,5.77-4.13,8.72-6.08.2-.13.4-.26.6-.39,2.97-1.95,5.97-3.83,9-5.62.15-.09.3-.18.45-.27,1.44-.85,2.89-1.68,4.34-2.49.1-.06.2-.11.29-.17,1.58-.88,3.17-1.74,4.76-2.58.03-.01.06-.03.08-.04,1.53-.8,3.06-1.58,4.6-2.35.15-.08.31-.15.46-.23,3.17-1.56,6.37-3.05,9.59-4.45.15-.07.3-.13.45-.2,3.25-1.41,6.53-2.74,9.84-3.99.09-.03.17-.07.26-.1,5.05-1.9,10.15-3.61,15.3-5.14.04-.01.09-.03.13-.04,3.45-1.02,6.92-1.95,10.4-2.81.04,0,.08-.02.12-.03,39.94-9.74,82.04-8.43,121.42,3.96-10.54-33.46-29.05-64.95-55.57-91.48-88.01-88.01-230.69-88.01-318.7,0-88.01,88-88.01,230.69,0,318.7,26.52,26.52,58.02,45.04,91.48,55.58-.92-2.91-1.76-5.84-2.56-8.78-.03-.1-.05-.2-.08-.3Z"/><path class="cls-1" d="M473.31,192.19s0-.02,0-.03c0,0-.02,0-.03,0,0,.01,0,.02,0,.03,0,0,.02,0,.03,0Z"/><path class="cls-1" d="M190.49,474.95s0,.01,0,.02c0,0,.02,0,.02,0,0,0,0-.01,0-.02,0,0-.02,0-.02,0Z"/><path class="cls-1" d="M473.28,192.18c-39.37-12.39-81.48-13.73-121.43-3.99-.04,0-.08.02-.12.03-3.48.85-6.95,1.79-10.4,2.81-.04.01-.09.03-.13.04-5.15,1.53-10.25,3.24-15.3,5.14-.09.03-.17.07-.26.1-3.3,1.25-6.58,2.58-9.84,3.99-.15.07-.3.13-.45.2-3.22,1.4-6.42,2.89-9.59,4.45-.15.08-.31.15-.46.23-1.54.76-3.08,1.55-4.6,2.35-.03.01-.06.03-.08.04-1.6.84-3.18,1.7-4.76,2.58-.1.05-.2.11-.29.17-1.46.81-2.9,1.65-4.34,2.49-.15.09-.3.18-.45.27-3.03,1.8-6.04,3.67-9,5.62-.2.13-.4.26-.6.39-2.94,1.95-5.85,3.97-8.72,6.08-.19.14-.39.28-.58.43-1.38,1.01-2.74,2.04-4.1,3.09-.05.04-.09.07-.14.11-1.44,1.11-2.86,2.25-4.28,3.4-.14.11-.28.23-.42.35-1.28,1.05-2.55,2.11-3.81,3.19-.16.13-.31.27-.47.4-1.39,1.19-2.77,2.41-4.13,3.64-.02.02-.05.04-.07.06-1.3,1.18-2.59,2.37-3.87,3.58-.19.18-.39.37-.58.55-1.31,1.25-2.62,2.52-3.9,3.81-1.29,1.29-2.55,2.59-3.8,3.9-.19.2-.38.4-.57.6-1.2,1.27-2.38,2.54-3.55,3.83-.03.04-.07.07-.1.11-1.22,1.36-2.43,2.72-3.61,4.1-.15.18-.3.36-.46.54-1.05,1.23-2.08,2.46-3.1,3.71-.14.17-.28.34-.42.51-1.13,1.39-2.25,2.8-3.35,4.21-.07.09-.14.18-.21.28-1.01,1.3-1.99,2.61-2.97,3.93-.17.23-.35.47-.52.7-2.07,2.83-4.06,5.69-5.99,8.59-.17.25-.33.51-.5.76-.92,1.4-1.83,2.82-2.72,4.24-.02.03-.04.07-.06.1-.93,1.49-1.84,2.99-2.73,4.5-.13.23-.26.45-.4.68-.79,1.34-1.56,2.68-2.31,4.03-.1.18-.21.37-.31.55-.85,1.52-1.68,3.05-2.49,4.59-.07.13-.14.26-.2.39-.73,1.4-1.45,2.81-2.15,4.22-.12.24-.24.49-.36.73-1.52,3.08-2.96,6.19-4.33,9.32-.11.25-.22.51-.33.76-1.36,3.15-2.65,6.33-3.86,9.53-.08.21-.16.43-.24.64-.56,1.49-1.11,2.99-1.63,4.5-.04.12-.09.25-.13.37-.58,1.65-1.13,3.31-1.67,4.98-.03.1-.06.2-.09.29-.5,1.55-.98,3.1-1.44,4.66-.06.19-.11.38-.17.57-.98,3.31-1.87,6.64-2.69,9.98-.05.2-.1.4-.14.59-.82,3.36-1.55,6.74-2.21,10.13-.03.15-.06.3-.09.45-.32,1.67-.63,3.35-.91,5.03,0,.02,0,.04,0,.05-.3,1.77-.57,3.54-.83,5.31,0,.03,0,.07-.01.1-.24,1.7-.47,3.4-.67,5.1-.01.11-.03.22-.04.32-.41,3.47-.75,6.96-1,10.45,0,.13-.02.26-.03.39-.25,3.49-.41,6.99-.5,10.49,0,.1,0,.2,0,.3-.08,3.54-.08,7.09,0,10.64,0,0,0,0,0,0,.04,1.76.11,3.53.19,5.29,0,.06,0,.11,0,.17.17,3.53.42,7.05.76,10.56,0,.1.02.21.03.31.34,3.5.76,7,1.26,10.49.01.09.03.18.04.28.51,3.52,1.1,7.03,1.78,10.52,0,.01,0,.03,0,.04.34,1.74.69,3.47,1.07,5.21,0,.04.02.09.03.13.76,3.47,1.6,6.92,2.53,10.35.03.1.05.2.08.3.8,2.94,1.66,5.87,2.58,8.79,2.86.9,5.73,1.75,8.62,2.53.22.06.44.12.66.18,3.32.89,6.66,1.7,10,2.44.18.04.37.08.55.12,1.54.33,3.09.65,4.64.96.16.03.33.07.49.1,1.7.33,3.41.64,5.12.93.07.01.13.02.2.03,1.6.27,3.2.52,4.8.75.24.03.48.07.71.1,3.35.48,6.71.88,10.07,1.21.26.03.52.05.78.07,3.37.32,6.74.56,10.12.72.23.01.47.02.7.03,1.53.07,3.05.12,4.58.16.19,0,.38.01.58.02,1.7.04,3.4.06,5.1.06.14,0,.29,0,.43,0,1.53,0,3.07-.02,4.6-.05.28,0,.57-.01.85-.02,3.33-.08,6.66-.24,9.98-.48.32-.02.64-.05.96-.07,1.59-.12,3.17-.25,4.76-.4.06,0,.12,0,.17-.02,1.66-.16,3.32-.34,4.98-.54.32-.04.63-.08.95-.12,1.41-.17,2.83-.36,4.24-.56.27-.04.53-.07.8-.11,1.63-.24,3.25-.49,4.87-.76.26-.04.53-.09.79-.14,1.38-.24,2.75-.49,4.13-.75.37-.07.73-.14,1.1-.21,1.6-.31,3.21-.64,4.8-.99.11-.02.22-.05.34-.08,1.47-.32,2.94-.67,4.41-1.02.41-.1.82-.2,1.23-.3,1.42-.35,2.84-.72,4.26-1.09.16-.04.32-.08.49-.13,1.55-.42,3.1-.86,4.64-1.31.42-.12.83-.25,1.25-.37,1.24-.37,2.47-.75,3.71-1.15.36-.11.72-.22,1.07-.34,1.51-.49,3.01-.99,4.51-1.52.38-.13.76-.27,1.14-.4,1.19-.42,2.37-.85,3.55-1.29.44-.16.88-.33,1.31-.49,1.48-.56,2.95-1.14,4.42-1.73.28-.11.55-.23.83-.34,1.23-.5,2.46-1.02,3.69-1.55.47-.2.94-.41,1.41-.61,1.25-.55,2.5-1.11,3.75-1.68.24-.11.48-.22.73-.33,1.43-.66,2.84-1.35,4.26-2.04.47-.23.93-.46,1.4-.69,1.09-.55,2.18-1.1,3.26-1.66.4-.21.79-.41,1.19-.62,1.38-.73,2.76-1.48,4.13-2.24.43-.24.85-.48,1.28-.72,1.04-.59,2.08-1.18,3.12-1.79.45-.26.9-.53,1.35-.79,1.35-.8,2.7-1.62,4.04-2.46.33-.21.66-.42.99-.63,1.08-.68,2.15-1.37,3.22-2.07.46-.3.92-.61,1.38-.91,1.17-.78,2.33-1.56,3.48-2.36.25-.17.5-.34.74-.51,1.27-.89,2.54-1.8,3.79-2.72.44-.32.88-.65,1.32-.97,1.01-.75,2.01-1.51,3.01-2.27.35-.27.7-.53,1.05-.8,1.27-.99,2.53-1.99,3.79-3.01.39-.32.78-.64,1.16-.96.96-.79,1.92-1.59,2.87-2.4.39-.33.78-.66,1.17-1,1.24-1.07,2.47-2.15,3.69-3.25.29-.26.58-.53.87-.8.99-.9,1.97-1.81,2.94-2.73.39-.37.78-.74,1.17-1.11,1.14-1.09,2.28-2.2,3.4-3.32.08-.08.16-.16.24-.24.07-.07.15-.15.22-.22,1.13-1.13,2.24-2.27,3.34-3.42.37-.38.73-.77,1.1-1.16.93-.98,1.84-1.97,2.75-2.97.26-.28.52-.56.77-.85,1.11-1.23,2.19-2.46,3.27-3.71.32-.37.64-.75.96-1.12.83-.97,1.65-1.95,2.46-2.94.3-.37.61-.74.91-1.11,1.03-1.27,2.05-2.55,3.05-3.83.24-.31.48-.63.72-.94.8-1.04,1.59-2.09,2.37-3.15.3-.41.6-.81.9-1.22.97-1.32,1.92-2.65,2.86-3.99.09-.13.18-.27.27-.4.86-1.24,1.71-2.49,2.54-3.74.27-.41.55-.83.82-1.24.75-1.15,1.49-2.3,2.22-3.46.16-.26.33-.51.49-.77.86-1.38,1.7-2.77,2.53-4.17.23-.38.45-.77.68-1.15.66-1.13,1.31-2.26,1.95-3.4.2-.35.39-.7.59-1.05.79-1.43,1.57-2.86,2.33-4.29.15-.29.3-.59.46-.88.63-1.21,1.25-2.42,1.85-3.63.19-.38.38-.76.56-1.13.73-1.48,1.44-2.97,2.14-4.46.03-.07.07-.14.1-.22.66-1.43,1.31-2.87,1.94-4.32.16-.36.32-.73.47-1.09.61-1.42,1.21-2.83,1.79-4.26.04-.1.09-.21.13-.31.63-1.56,1.24-3.12,1.83-4.68.12-.3.23-.61.34-.91.51-1.37,1.02-2.75,1.5-4.13.08-.22.16-.44.23-.66.56-1.6,1.1-3.21,1.62-4.82.06-.18.11-.35.17-.53.47-1.46.92-2.92,1.36-4.39.07-.25.15-.5.23-.75.96-3.27,1.85-6.56,2.66-9.86.06-.23.11-.46.17-.68.81-3.34,1.55-6.7,2.2-10.08.03-.16.06-.32.09-.47.32-1.67.63-3.35.91-5.03,0-.01,0-.02,0-.03.3-1.78.58-3.56.84-5.34,0,0,0-.01,0-.02.25-1.74.48-3.48.69-5.22,0-.07.02-.15.03-.22.42-3.52.76-7.05,1.01-10.58,0-.07.01-.14.02-.21.25-3.56.42-7.12.51-10.69,0-.01,0-.02,0-.04.59-24.69-2.87-49.45-10.36-73.23Z"/></g></svg>