<?xml version="1.0" encoding="UTF-8"?><svg id="katman_1" xmlns="http://www.w3.org/2000/svg" viewBox="0 0 666 666"><defs><style>.cls-1{fill:none;stroke:#dca958;stroke-width:45px;}</style></defs><g id="Rebus"><path class="cls-1" d="M527.79,261.23c-22.18-22.18-48.52-37.67-76.51-46.48,6.26,19.89,9.13,40.6,8.64,61.24,0,0,0,.02,0,.03-.07,2.98-.21,5.96-.43,8.94,0,.06,0,.12-.01.17-.21,2.95-.5,5.91-.85,8.85,0,.06-.02.12-.02.18-.18,1.46-.37,2.91-.58,4.37,0,0,0,.01,0,.02-.22,1.49-.45,2.98-.7,4.47,0,0,0,.02,0,.03-.24,1.41-.49,2.81-.76,4.21-.03.13-.05.26-.08.4-.55,2.82-1.16,5.63-1.84,8.43-.05.19-.09.38-.14.57-.68,2.76-1.42,5.51-2.23,8.25-.06.21-.13.42-.19.63-.37,1.23-.74,2.45-1.13,3.67-.05.15-.09.3-.14.44-.44,1.35-.89,2.69-1.35,4.03-.06.18-.13.37-.2.55-.41,1.16-.83,2.31-1.26,3.46-.1.25-.19.51-.29.76-.5,1.31-1.01,2.62-1.53,3.92-.04.09-.07.17-.11.26-.49,1.19-.99,2.38-1.5,3.56-.13.3-.26.61-.4.91-.53,1.21-1.07,2.41-1.62,3.61-.03.06-.05.12-.08.18-.58,1.25-1.18,2.49-1.79,3.73-.16.32-.31.63-.47.95-.51,1.02-1.02,2.03-1.55,3.04-.13.25-.25.49-.38.74-.63,1.2-1.28,2.4-1.94,3.59-.16.29-.33.58-.49.87-.54.95-1.08,1.9-1.63,2.84-.19.32-.38.64-.57.97-.69,1.17-1.4,2.33-2.12,3.48-.13.22-.27.43-.41.64-.61.97-1.23,1.93-1.86,2.89-.23.35-.45.69-.68,1.04-.7,1.05-1.4,2.09-2.12,3.13-.08.11-.15.22-.23.33-.78,1.12-1.58,2.23-2.39,3.34-.25.34-.5.68-.75,1.02-.65.88-1.31,1.76-1.98,2.63-.2.26-.4.53-.6.79-.84,1.08-1.69,2.14-2.55,3.21-.25.31-.51.62-.76.93-.68.82-1.36,1.64-2.06,2.46-.27.31-.53.63-.8.94-.9,1.04-1.81,2.08-2.73,3.1-.21.24-.43.47-.65.71-.76.83-1.53,1.66-2.3,2.48-.3.32-.61.65-.92.97-.92.96-1.85,1.92-2.79,2.86-.06.06-.12.13-.19.19s-.13.13-.2.19c-.94.94-1.89,1.86-2.85,2.78-.32.31-.65.62-.98.93-.82.77-1.64,1.53-2.46,2.28-.24.22-.48.45-.73.67-1.02.92-2.05,1.82-3.08,2.72-.32.28-.65.56-.98.83-.8.68-1.6,1.35-2.4,2.01-.32.27-.65.54-.97.8-1.05.85-2.1,1.69-3.17,2.52-.29.23-.58.45-.87.67-.84.64-1.68,1.28-2.52,1.9-.37.27-.74.55-1.11.81-1.05.77-2.11,1.53-3.17,2.27-.21.14-.42.29-.62.43-.97.67-1.94,1.33-2.91,1.98-.38.26-.77.51-1.16.76-.89.58-1.79,1.16-2.69,1.73-.28.17-.55.35-.83.53-1.12.7-2.25,1.38-3.38,2.05-.38.22-.75.44-1.13.66-.87.51-1.73,1-2.61,1.5-.36.2-.71.4-1.07.6-1.15.64-2.3,1.26-3.46,1.87-.33.17-.66.34-.99.51-.91.47-1.82.94-2.73,1.39-.39.19-.78.39-1.17.58-1.18.58-2.37,1.15-3.56,1.71-.2.09-.4.18-.61.28-1.04.48-2.09.95-3.13,1.41-.39.17-.79.34-1.18.51-1.02.44-2.05.87-3.08,1.29-.23.09-.46.19-.69.29-1.23.5-2.46.98-3.7,1.45-.37.14-.73.27-1.1.41-.99.37-1.98.73-2.97,1.08-.32.11-.63.23-.95.34-1.25.44-2.51.86-3.77,1.27-.3.1-.6.19-.9.28-1.03.33-2.07.65-3.1.96-.35.1-.7.21-1.04.31-1.29.38-2.58.75-3.88,1.1-.14.04-.27.07-.41.11-1.19.32-2.37.62-3.56.92-.34.08-.69.17-1.03.25-1.23.3-2.46.58-3.69.85-.09.02-.19.04-.28.06-1.34.29-2.68.57-4.02.83-.31.06-.61.12-.92.18-1.15.22-2.3.43-3.45.63-.22.04-.44.08-.66.11-1.36.23-2.72.44-4.08.64-.22.03-.45.06-.67.09-1.18.17-2.36.32-3.54.47-.26.03-.53.07-.79.1-1.39.16-2.77.32-4.16.45-.05,0-.1,0-.14.01-1.33.13-2.65.23-3.98.33-.27.02-.54.04-.8.06-2.78.19-5.56.33-8.35.4-.24,0-.47.01-.71.02-1.28.03-2.57.04-3.85.05-.12,0-.24,0-.36,0-1.42,0-2.84-.02-4.27-.05-.16,0-.32,0-.48-.01-1.28-.03-2.55-.08-3.83-.14-.2,0-.39-.02-.59-.03-2.82-.14-5.64-.34-8.46-.6-.22-.02-.43-.04-.65-.06-2.81-.27-5.62-.61-8.43-1.01-.2-.03-.4-.06-.6-.09-1.34-.2-2.68-.4-4.02-.63-.06,0-.11-.02-.17-.03-1.43-.24-2.86-.5-4.28-.78-.14-.03-.27-.05-.41-.08-1.3-.25-2.59-.52-3.88-.8-.15-.03-.31-.07-.46-.1-2.8-.62-5.59-1.3-8.37-2.04-.18-.05-.37-.1-.55-.15-2.41-.65-4.81-1.35-7.2-2.1,8.81,27.99,24.3,54.33,46.49,76.52,73.61,73.61,192.95,73.61,266.56,0,73.61-73.61,73.61-192.95,0-266.56Z"/><path class="cls-1" d="M212.52,443.66c-.77-2.87-1.48-5.76-2.11-8.66,0-.04-.02-.07-.02-.11-.32-1.45-.62-2.9-.9-4.35,0-.01,0-.02,0-.03-.57-2.92-1.06-5.86-1.49-8.8-.01-.08-.02-.15-.03-.23-.42-2.92-.77-5.84-1.05-8.77,0-.09-.02-.17-.02-.26-.28-2.94-.49-5.89-.63-8.83,0-.05,0-.09,0-.14-.07-1.48-.12-2.95-.16-4.43,0,0,0,0,0,0-.07-2.97-.07-5.93,0-8.9,0-.08,0-.17,0-.25.07-2.93.21-5.85.42-8.77,0-.11.02-.22.02-.33.21-2.92.49-5.83.84-8.74.01-.09.02-.18.03-.27.17-1.42.36-2.85.56-4.27,0-.03,0-.06.01-.08.21-1.48.45-2.96.69-4.44,0-.01,0-.03,0-.04.24-1.4.49-2.81.76-4.21.02-.13.05-.25.07-.38.55-2.84,1.17-5.66,1.85-8.47.04-.17.08-.33.12-.5.69-2.8,1.44-5.58,2.25-8.35.05-.16.1-.32.14-.48.39-1.3.79-2.6,1.21-3.9.03-.08.05-.16.08-.25.45-1.39.92-2.78,1.4-4.16.04-.1.07-.21.11-.31.44-1.26.9-2.51,1.37-3.76.07-.18.13-.36.2-.53,1.01-2.68,2.09-5.33,3.23-7.97.09-.21.18-.42.28-.64,1.14-2.62,2.35-5.22,3.62-7.8.1-.2.2-.41.3-.61.59-1.18,1.19-2.36,1.8-3.53.06-.11.11-.22.17-.33.68-1.29,1.37-2.57,2.08-3.84.09-.15.17-.31.26-.46.63-1.13,1.28-2.25,1.94-3.37.11-.19.22-.38.33-.57.75-1.26,1.51-2.52,2.29-3.76.02-.03.04-.05.05-.08.74-1.19,1.5-2.37,2.28-3.54.14-.21.28-.42.42-.63,1.61-2.42,3.28-4.82,5.01-7.18.14-.2.29-.39.43-.59.81-1.1,1.64-2.2,2.48-3.29.06-.08.12-.15.18-.23.92-1.18,1.85-2.36,2.8-3.52.12-.14.23-.28.35-.43.85-1.04,1.72-2.08,2.6-3.1.13-.15.25-.3.38-.45.99-1.15,2-2.3,3.02-3.43.03-.03.06-.06.09-.09.97-1.08,1.96-2.14,2.97-3.2.16-.17.32-.34.48-.5,1.05-1.1,2.1-2.19,3.18-3.26s2.17-2.13,3.27-3.18c.16-.15.32-.31.49-.46,1.07-1.01,2.15-2.01,3.24-3,.02-.02.04-.04.06-.05,1.14-1.03,2.3-2.05,3.46-3.05.13-.11.26-.22.39-.33,1.05-.9,2.12-1.79,3.19-2.67.12-.1.23-.19.35-.29,1.18-.96,2.38-1.91,3.58-2.84.04-.03.08-.06.12-.09,1.14-.88,2.28-1.74,3.43-2.59.16-.12.32-.24.48-.36,2.4-1.76,4.83-3.45,7.29-5.08.17-.11.33-.22.5-.33,2.48-1.63,4.99-3.2,7.53-4.7.13-.07.25-.15.38-.22,1.21-.71,2.42-1.41,3.63-2.09.08-.05.16-.09.25-.14,1.32-.74,2.65-1.45,3.98-2.16.02-.01.05-.02.07-.04,1.28-.67,2.56-1.32,3.85-1.96.13-.06.26-.13.38-.19,2.65-1.31,5.32-2.55,8.02-3.72.13-.06.25-.11.38-.16,2.72-1.18,5.46-2.29,8.23-3.33.07-.03.15-.05.22-.08,4.22-1.59,8.49-3.02,12.79-4.3.04-.01.07-.02.11-.03,2.88-.85,5.78-1.64,8.7-2.35.03,0,.06-.02.1-.02,33.41-8.15,68.62-7.05,101.56,3.31-8.81-27.99-24.3-54.33-46.48-76.51-73.61-73.61-192.95-73.61-266.56,0-73.61,73.61-73.61,192.95,0,266.56,22.19,22.19,48.53,37.67,76.52,46.49-.77-2.44-1.48-4.88-2.14-7.34-.02-.08-.04-.17-.07-.25Z"/><path class="cls-1" d="M451.28,214.75s0-.02,0-.03c0,0-.02,0-.02,0,0,0,0,.02,0,.03,0,0,.02,0,.02,0Z"/><path class="cls-1" d="M214.72,451.25s0,.01,0,.02c0,0,.01,0,.02,0,0,0,0-.01,0-.02,0,0-.01,0-.02,0Z"/><path class="cls-1" d="M451.26,214.74c-32.93-10.36-68.15-11.48-101.57-3.34-.03,0-.06.02-.1.02-2.91.71-5.81,1.49-8.7,2.35-.04.01-.07.02-.11.03-4.3,1.28-8.57,2.71-12.79,4.3-.07.03-.15.05-.22.08-2.76,1.04-5.51,2.16-8.23,3.33-.13.05-.25.11-.38.16-2.7,1.17-5.37,2.42-8.02,3.72-.13.06-.26.13-.38.19-1.29.64-2.57,1.29-3.85,1.96-.02.01-.05.02-.07.04-1.33.7-2.66,1.42-3.98,2.16-.08.05-.16.09-.25.14-1.22.68-2.43,1.38-3.63,2.09-.13.07-.25.15-.38.22-2.54,1.5-5.05,3.07-7.53,4.7-.17.11-.33.22-.5.33-2.46,1.63-4.89,3.32-7.29,5.08-.16.12-.32.24-.48.36-1.15.85-2.3,1.71-3.43,2.59-.04.03-.08.06-.12.09-1.2.93-2.39,1.88-3.58,2.84-.12.1-.24.19-.35.29-1.07.88-2.13,1.76-3.19,2.67-.13.11-.26.22-.39.33-1.16,1-2.32,2.01-3.46,3.05-.02.02-.04.04-.06.05-1.09.98-2.17,1.99-3.24,3-.16.15-.33.31-.49.46-1.1,1.05-2.19,2.11-3.27,3.18-1.08,1.08-2.13,2.16-3.18,3.26-.16.17-.32.33-.48.5-1,1.06-1.99,2.12-2.97,3.2-.03.03-.06.06-.09.09-1.02,1.13-2.03,2.28-3.02,3.43-.13.15-.25.3-.38.45-.88,1.03-1.74,2.06-2.6,3.1-.12.14-.23.28-.35.43-.95,1.17-1.88,2.34-2.8,3.52-.06.08-.12.15-.18.23-.84,1.09-1.67,2.19-2.48,3.29-.14.2-.29.39-.43.59-1.73,2.36-3.4,4.76-5.01,7.18-.14.21-.28.42-.42.63-.77,1.17-1.53,2.35-2.28,3.54-.02.03-.04.05-.05.08-.78,1.25-1.54,2.5-2.29,3.76-.11.19-.22.38-.33.57-.66,1.12-1.3,2.24-1.94,3.37-.09.15-.17.31-.26.46-.71,1.27-1.4,2.55-2.08,3.84-.06.11-.11.22-.17.33-.61,1.17-1.21,2.35-1.8,3.53-.1.2-.2.41-.3.61-1.27,2.58-2.48,5.18-3.62,7.8-.09.21-.18.42-.28.64-1.14,2.64-2.22,5.29-3.23,7.97-.07.18-.13.36-.2.53-.47,1.25-.93,2.5-1.37,3.76-.04.1-.07.21-.11.31-.48,1.38-.95,2.77-1.4,4.16-.03.08-.05.16-.08.25-.42,1.3-.82,2.6-1.21,3.9-.05.16-.1.32-.14.48-.82,2.77-1.57,5.55-2.25,8.35-.04.17-.08.33-.12.5-.68,2.81-1.3,5.64-1.85,8.47-.02.13-.05.25-.07.38-.27,1.4-.52,2.8-.76,4.21,0,.01,0,.03,0,.04-.25,1.48-.48,2.96-.69,4.44,0,.03,0,.06-.01.08-.2,1.42-.39,2.84-.56,4.27-.01.09-.02.18-.03.27-.35,2.91-.63,5.82-.84,8.74,0,.11-.02.22-.02.33-.21,2.92-.35,5.85-.42,8.77,0,.08,0,.17,0,.25-.07,2.97-.07,5.93,0,8.9,0,0,0,0,0,0,.04,1.48.09,2.95.16,4.43,0,.05,0,.09,0,.14.14,2.95.35,5.89.63,8.83,0,.09.02.17.02.26.28,2.93.63,5.85,1.05,8.77.01.08.02.15.03.23.43,2.94.92,5.88,1.49,8.8,0,.01,0,.02,0,.03.28,1.45.58,2.91.9,4.35,0,.04.02.07.02.11.63,2.9,1.34,5.79,2.11,8.66.02.08.04.17.07.25.67,2.46,1.39,4.91,2.16,7.35,2.39.75,4.79,1.47,7.21,2.12.18.05.37.1.55.15,2.78.74,5.57,1.43,8.37,2.04.15.03.31.07.46.1,1.29.28,2.58.55,3.88.8.14.03.27.05.41.08,1.42.27,2.85.53,4.28.78.06,0,.11.02.17.03,1.34.22,2.68.43,4.02.63.2.03.4.06.6.09,2.8.4,5.61.74,8.43,1.01.22.02.43.04.65.06,2.82.26,5.64.47,8.46.6.2,0,.39.02.59.03,1.28.06,2.55.1,3.83.14.16,0,.32,0,.48.01,1.42.03,2.84.05,4.27.05.12,0,.24,0,.36,0,1.28,0,2.57-.02,3.85-.05.24,0,.47,0,.71-.02,2.78-.07,5.57-.2,8.35-.4.27-.02.54-.04.8-.06,1.33-.1,2.65-.21,3.98-.33.05,0,.1,0,.14-.01,1.39-.13,2.78-.28,4.16-.45.26-.03.53-.06.79-.1,1.18-.14,2.36-.3,3.54-.47.22-.03.45-.06.67-.09,1.36-.2,2.72-.41,4.08-.64.22-.04.44-.08.66-.11,1.15-.2,2.3-.41,3.45-.63.31-.06.61-.12.92-.18,1.34-.26,2.68-.54,4.02-.83.09-.02.19-.04.28-.06,1.23-.27,2.46-.56,3.69-.85.34-.08.69-.17,1.03-.25,1.19-.29,2.38-.6,3.56-.92.14-.04.27-.07.41-.11,1.3-.35,2.59-.72,3.88-1.1.35-.1.7-.21,1.04-.31,1.04-.31,2.07-.63,3.1-.96.3-.1.6-.19.9-.28,1.26-.41,2.52-.83,3.77-1.27.32-.11.64-.23.95-.34.99-.35,1.98-.71,2.97-1.08.37-.14.73-.27,1.1-.41,1.24-.47,2.47-.95,3.7-1.45.23-.09.46-.19.69-.29,1.03-.42,2.06-.85,3.08-1.29.39-.17.79-.34,1.18-.51,1.05-.46,2.09-.93,3.13-1.41.2-.09.4-.18.61-.28,1.19-.55,2.38-1.13,3.56-1.71.39-.19.78-.39,1.17-.58.91-.46,1.82-.92,2.73-1.39.33-.17.66-.34.99-.51,1.16-.61,2.31-1.24,3.46-1.87.36-.2.71-.4,1.07-.6.87-.49,1.74-.99,2.61-1.5.38-.22.76-.44,1.13-.66,1.13-.67,2.26-1.36,3.38-2.05.28-.17.55-.35.83-.53.9-.57,1.8-1.14,2.69-1.73.39-.25.77-.51,1.16-.76.98-.65,1.95-1.31,2.91-1.98.21-.14.42-.28.62-.43,1.06-.74,2.12-1.5,3.17-2.27.37-.27.74-.54,1.11-.81.84-.63,1.68-1.26,2.52-1.9.29-.22.58-.44.87-.67,1.06-.83,2.12-1.67,3.17-2.52.33-.26.65-.53.97-.8.8-.66,1.6-1.33,2.4-2.01.33-.28.65-.55.98-.83,1.04-.89,2.06-1.8,3.08-2.72.24-.22.49-.45.73-.67.83-.75,1.65-1.51,2.46-2.28.33-.31.65-.62.98-.93.96-.91,1.91-1.84,2.85-2.78.07-.07.13-.13.2-.2.06-.06.12-.13.18-.19.94-.95,1.87-1.9,2.79-2.86.31-.32.61-.64.92-.97.78-.82,1.54-1.65,2.3-2.48.21-.24.43-.47.65-.71.93-1.03,1.83-2.06,2.73-3.1.27-.31.53-.63.8-.94.69-.81,1.38-1.63,2.06-2.46.25-.31.51-.62.76-.93.86-1.06,1.71-2.13,2.55-3.21.2-.26.4-.53.6-.79.67-.87,1.33-1.75,1.98-2.63.25-.34.5-.68.75-1.02.81-1.11,1.61-2.22,2.39-3.34.08-.11.15-.22.23-.33.72-1.04,1.43-2.08,2.12-3.13.23-.35.46-.69.68-1.04.63-.96,1.25-1.93,1.86-2.89.14-.21.27-.43.41-.64.72-1.16,1.42-2.32,2.12-3.48.19-.32.38-.64.57-.97.55-.94,1.1-1.89,1.63-2.84.16-.29.33-.58.49-.87.66-1.19,1.31-2.39,1.94-3.59.13-.25.26-.49.38-.74.53-1.01,1.04-2.02,1.55-3.04.16-.32.32-.63.47-.95.61-1.24,1.21-2.48,1.79-3.73.03-.06.05-.12.08-.18.55-1.2,1.09-2.4,1.62-3.61.13-.3.26-.61.4-.91.51-1.18,1.01-2.37,1.5-3.56.04-.09.07-.17.11-.26.53-1.3,1.04-2.61,1.53-3.92.1-.25.19-.51.29-.76.43-1.15.85-2.3,1.26-3.46.06-.18.13-.37.2-.55.47-1.34.92-2.68,1.35-4.03.05-.15.09-.3.14-.44.39-1.22.77-2.44,1.13-3.67.06-.21.13-.42.19-.63.81-2.74,1.55-5.49,2.23-8.25.05-.19.09-.38.14-.57.68-2.8,1.29-5.61,1.84-8.43.03-.13.05-.26.08-.4.27-1.4.53-2.8.76-4.21,0,0,0-.02,0-.03.25-1.49.48-2.97.7-4.47,0,0,0-.01,0-.02.21-1.45.4-2.91.58-4.37,0-.06.02-.12.02-.18.35-2.94.63-5.89.85-8.85,0-.06,0-.12.01-.17.21-2.98.35-5.96.43-8.94,0,0,0-.02,0-.03.49-20.65-2.4-41.36-8.66-61.25Z"/></g></svg>