<?xml version="1.0" encoding="UTF-8"?><svg id="katman_1" xmlns="http://www.w3.org/2000/svg" viewBox="0 0 666 666"><defs><style>.cls-1{fill:#dca958;stroke-width:0px;}</style></defs><path id="Stride" class="cls-1" d="M333,64c-148.56,0-269,120.44-269,269s120.44,269,269,269,269-120.44,269-269S481.56,64,333,64ZM467.18,286.39h-66.55v77.27c0,28.48,23.08,51.6,51.6,51.6h14.95v45.33h-15.56c-61.37,0-101.99-37.55-101.99-96.33v-77.87h-96.71c-16.42,0-20.74,18.58-9.08,27.22l52.29,35.44c51.86,30.25,34.57,111.49-33.28,111.49h-71.74v-45.37h71.74c16.42,0,21.18-18.15,9.51-26.79l-52.72-35.44c-51.86-30.25-34.14-111.49,33.28-111.49h96.71v-47.1l50.99-27.23v74.33h66.55v44.94Z"/></svg>